<?xml version="1.0" encoding="utf-8"?>
<!-- Generator: Adobe Illustrator 15.1.0, SVG Export Plug-In . SVG Version: 6.00 Build 0)  -->
<!DOCTYPE svg PUBLIC "-//W3C//DTD SVG 1.1//EN" "http://www.w3.org/Graphics/SVG/1.1/DTD/svg11.dtd">
<svg version="1.1" id="Layer_1" xmlns="http://www.w3.org/2000/svg" xmlns:xlink="http://www.w3.org/1999/xlink" x="0px" y="0px"
	 width="100px" height="100px" viewBox="0 0 100 100" enable-background="new 0 0 100 100" xml:space="preserve">
<path fill="#231F20" d="M83.8,6.6H24.7h-8.3C13,6.6,10,9.4,10,12.7c0,0,0,0,0,0.1c0,0.2,0.3,0.5,0.3,0.7l6.8,61
	c0.1,0.9,0.4,1.699,0.9,2.4c0.6,1.199,1.6,2.1,2.8,2.699l26.9,13.199c0.9,0.398,1.8,0.602,2.7,0.602s1.8-0.201,2.7-0.602L79.9,79.6
	c2.199-1.1,3.5-3.398,3.397-5.799L89.9,13.3c0-0.2,0.1-0.5,0.1-0.7c0,0,0,0,0-0.1C90,9.4,87.2,6.6,83.8,6.6z M33.8,48.2L44,58.4
	c2,2,2,5.299,0,7.299s-5.3,2-7.3,0L21.8,50.801c0,0-0.2,0-0.2-0.101C20.8,49.9,20,49,20,48l0,0c0-0.3,0.1-0.6,0.1-1
	c0-1.3,0.6-2.7,1.6-3.7c0,0,0.1,0,0.1-0.1l4.8-4.8l10.2-10.2c2-2,5.3-2,7.3,0s2,5.3,0,7.3L32.7,47.1L33.8,48.2z M80,50.7
	C79.9,50.7,79.9,50.801,80,50.7l-4.8,4.8L65,65.699c-2,2-5.3,2-7.3,0s-2-5.299,0-7.299L69,47.1l-1.2-1.2L57.6,35.7c-2-2-2-5.3,0-7.3
	s5.301-2,7.301,0L79.8,43.3c0,0,0.101,0,0.101,0.1c0.802,0.8,1.199,1.7,1.399,2.7c0,0.2,0,0.4,0.101,0.5c0,0.1,0,0.3,0,0.4
	C81.5,48.4,81,49.7,80,50.7z"/>
</svg>
