<?xml version="1.0" encoding="utf-8"?>
<!-- Generator: Adobe Illustrator 15.1.0, SVG Export Plug-In . SVG Version: 6.00 Build 0)  -->
<!DOCTYPE svg PUBLIC "-//W3C//DTD SVG 1.1//EN" "http://www.w3.org/Graphics/SVG/1.1/DTD/svg11.dtd">
<svg version="1.1" id="Layer_1" xmlns="http://www.w3.org/2000/svg" xmlns:xlink="http://www.w3.org/1999/xlink" x="0px" y="0px"
	 width="100px" height="100px" viewBox="0 0 100 100" enable-background="new 0 0 100 100" xml:space="preserve">
<path fill="#231F20" d="M78.466,41.435h-3.21V21.018C75.256,9.428,64.15,0,50.5,0C36.85,0,25.744,9.428,25.744,21.018h0.001v20.417
	h-3.21c-4.394,0-7.989,3.595-7.989,7.989v42.587c0,4.396,3.595,7.989,7.989,7.989h55.931c4.396,0,7.989-3.596,7.989-7.989V49.424
	C86.455,45.03,82.859,41.435,78.466,41.435z M57.465,85.805H43.536l2.812-15.02c-2.337-1.41-3.905-3.969-3.905-6.896
	c0-4.449,3.608-8.058,8.057-8.058c4.451,0,8.057,3.608,8.057,8.058c0,2.93-1.568,5.486-3.904,6.896L57.465,85.805z M64.646,41.435
	H36.354V21.018l0,0c0-5.642,6.478-10.408,14.146-10.408s14.146,4.767,14.146,10.408V41.435z"/>
</svg>
